<?xml version="1.0" encoding="UTF-8" standalone="no"?>
<!-- Created with enve https://maurycyliebner.github.io -->

<svg xmlns="http://www.w3.org/2000/svg" xmlns:xlink="http://www.w3.org/1999/xlink" viewBox="0 0 200 200">
 <rect fill="#ffffff" width="200" height="200"/>
 <g transform="translate(130.707 163.72)">
  <g transform="translate(910.385 388.136)">
   <g transform="rotate(0)">
    <g transform="scale(1 1)">
     <g transform="skewX(0) skewY(0)">
      <g opacity="1" transform="translate(-130.707 -163.72)">
       <g>
        <g transform="translate(163.874 205.966)">
         <g transform="translate(-984.983 -457.257)">
          <g transform="rotate(0)">
           <g transform="scale(1 1)">
            <g transform="skewX(0) skewY(0)">
             <g opacity="1" transform="translate(-163.874 -205.966)">
              <path stroke-width="0" fill="url(#0x00000243f25eda10)" stroke="none" d="M134.51 206.885Q157.374 230.406 178.402 225.103C196.701 220.487 199.114 206.128 179.771 185.854L180.882 203.77C189.553 218.804 160.373 221.675 143.465 201.443Q143.465 201.443 134.51 206.885Z"/>
             </g>
            </g>
           </g>
          </g>
         </g>
        </g>
        <g transform="translate(113.218 249.089)">
         <g transform="translate(-934.202 -453.469)">
          <g transform="rotate(0)">
           <g transform="scale(1 1)">
            <g transform="skewX(0) skewY(0)">
             <g opacity="1" transform="translate(-113.218 -249.089)">
              <path stroke-width="0" fill="#c3baa9" stroke="none" d="M120.051 242.181C119.693 242.181 94.7065 241.033 94.3965 251.173C94.325 253.513 94.1668 255.338 94.3965 256.553L129.906 256.194C133.243 253.419 132.253 246.135 130.876 241.625Q120.41 242.181 120.051 242.181Z"/>
             </g>
            </g>
           </g>
          </g>
         </g>
        </g>
        <g transform="translate(141.033 205.989)">
         <g transform="translate(-934.202 -449.05)">
          <g transform="rotate(0)">
           <g transform="scale(1 1)">
            <g transform="skewX(0) skewY(0)">
             <g opacity="1" transform="translate(-141.033 -205.989)">
              <path stroke-width="0" fill="#3f5787" stroke="none" d="M130.413 180.872C128.664 188.143 127.575 228.446 130.413 233.855C134.024 240.735 149.402 237.807 151.424 233.855C153.741 229.809 154.35 192.444 151.424 178.819C144.149 170.514 134.416 174.061 130.413 180.872L130.413 180.872Z"/>
             </g>
            </g>
           </g>
          </g>
         </g>
        </g>
        <g transform="translate(75.1636 191.804)">
         <g transform="translate(-925.131 -447.618)">
          <g transform="rotate(0)">
           <g transform="scale(0.985289 0.985295)">
            <g transform="skewX(0) skewY(0)">
             <g opacity="1" transform="translate(-75.1636 -191.804)">
              <path stroke-width="0" fill="#f3e3c7" stroke="none" d="M74.7501 182.891C64.2635 182.891 61.7681 200.606 74.7501 200.716C87.732 200.827 87.5077 182.891 74.7501 182.891L74.7501 182.891Z"/>
             </g>
            </g>
           </g>
          </g>
         </g>
        </g>
        <g transform="translate(113.2 249.089)">
         <g transform="translate(-905.181 -446.89)">
          <g transform="rotate(0)">
           <g transform="scale(1 1)">
            <g transform="skewX(0) skewY(0)">
             <g opacity="1" transform="translate(-113.2 -249.089)">
              <path stroke-width="0" fill="#c3baa9" stroke="none" d="M120.051 242.181C119.693 242.181 95.3177 241.07 94.3965 251.173Q94.0845 254.595 94.3965 256.553L129.906 256.194C133.243 253.419 132.253 246.135 130.876 241.625Q120.41 242.181 120.051 242.181Z"/>
             </g>
            </g>
           </g>
          </g>
         </g>
        </g>
        <g transform="translate(188.055 144.79)">
         <g transform="translate(-934.202 -449.05)">
          <g transform="rotate(0)">
           <g transform="scale(1 1)">
            <g transform="skewX(0) skewY(0)">
             <g opacity="1" transform="translate(-188.055 -144.79)">
              <path stroke-width="0" fill="none" stroke="#9a9071" d="M188.905 140.662Q184.864 147.541 189.163 148.917"/>
             </g>
            </g>
           </g>
          </g>
         </g>
        </g>
        <g transform="translate(163.743 205.883)">
         <g transform="translate(-962.875 -455.583)">
          <g transform="rotate(0)">
           <g transform="scale(1 1)">
            <g transform="skewX(0) skewY(0)">
             <g opacity="1" transform="translate(-163.743 -205.883)">
              <path stroke-width="0" fill="url(#0x00000243f195f8b0)" stroke="none" d="M134.51 206.885Q157.374 230.406 178.402 225.103C196.701 220.487 198.624 205.961 179.282 185.687L180.882 203.77C189.553 218.804 160.373 221.675 143.465 201.443Q143.465 201.443 134.51 206.885Z"/>
             </g>
            </g>
           </g>
          </g>
         </g>
        </g>
        <g transform="translate(135.144 138.905)">
         <g transform="translate(-938.072 -446.916)">
          <g transform="rotate(0)">
           <g transform="scale(1 1)">
            <g transform="skewX(0) skewY(0)">
             <g opacity="1" transform="translate(-135.144 -138.905)">
              <path stroke-width="0" fill="#f3e3c7" stroke="none" d="M91.4365 117.116C77.1079 129.39 77.0693 163.022 99.2766 172.611C121.484 182.201 170.404 178.475 177.971 165.855C190.317 145.263 197.468 117.116 168.927 104.98C139.662 92.536 105.765 104.842 91.4365 117.116L91.4365 117.116Z"/>
             </g>
            </g>
           </g>
          </g>
         </g>
        </g>
        <g transform="translate(129.56 101.239)">
         <g transform="translate(-938.862 -440.121)">
          <g transform="rotate(0)">
           <g transform="scale(1 1)">
            <g transform="skewX(0) skewY(0)">
             <g opacity="1" transform="translate(-129.56 -101.239)">
              <path stroke-width="0" fill="#32302a" stroke="none" d="M82.072 130.904C67.9742 120.69 58.407 104.129 58.407 104.129C58.407 104.129 72.3939 107.514 75.3064 104.98Q78.2188 102.445 82.072 72.24L109.922 78.7931L119.616 55.0178C119.616 55.0178 193.143 90.8997 193.143 90.8997Q203.71 114.346 199.527 130.904Q195.345 147.461 183.457 147.461Q186.864 115.176 178.174 123.04Q174.267 126.301 169.483 130.904Q172.433 104.129 139.639 104.129C106.845 104.129 82.072 120.758 82.072 130.904L82.072 130.904Z"/>
             </g>
            </g>
           </g>
          </g>
         </g>
        </g>
        <g transform="translate(114.542 133.309)">
         <g transform="translate(-969.771 -440.339)">
          <g transform="rotate(0)">
           <g transform="scale(1.61253 1.61253)">
            <g transform="skewX(0) skewY(0)">
             <g opacity="1" transform="translate(-114.542 -133.309)">
              <path stroke-width="0" fill="#32302a" stroke="none" d="M106.398 132.678L120.705 132.222L123.782 133.348L119.498 133.348L123.09 134.396L106.398 134.396L107.608 133.523L105.301 133.348L106.398 132.678L106.398 132.678Z"/>
             </g>
            </g>
           </g>
          </g>
         </g>
        </g>
        <g transform="translate(114.542 133.309)">
         <g transform="translate(-916.618 -441.11)">
          <g transform="rotate(0)">
           <g transform="scale(1.61253 1.61253)">
            <g transform="skewX(0) skewY(0)">
             <g opacity="1" transform="translate(-114.542 -133.309)">
              <path stroke-width="0" fill="#32302a" stroke="none" d="M106.398 132.678L120.705 132.222L123.782 133.348L119.498 133.348L123.09 134.396L106.398 134.396L107.608 133.523L105.301 133.348L106.398 132.678L106.398 132.678Z"/>
             </g>
            </g>
           </g>
          </g>
         </g>
        </g>
        <g transform="translate(184.405 145.755)">
         <g transform="translate(-934.202 -449.05)">
          <g transform="rotate(0)">
           <g transform="scale(1 1)">
            <g transform="skewX(0) skewY(0)">
             <g opacity="1" transform="translate(-184.405 -145.755)">
              <path stroke-width="0" fill="#f3e3c7" stroke="none" d="M178.103 138.98Q183.013 127.403 188.538 135.85C194.063 144.297 188.354 166.88 179.081 156.586Q178.268 156.262 178.103 138.98Z"/>
             </g>
            </g>
           </g>
          </g>
         </g>
        </g>
        <g transform="translate(95.0506 160.257)">
         <g transform="translate(-936.743 -441.791)">
          <g transform="rotate(0)">
           <g transform="scale(0.956215 0.956215)">
            <g transform="skewX(0) skewY(0)">
             <g opacity="1" transform="translate(-95.0506 -160.257)">
              <path stroke-width="0" fill="#cccccc" stroke="none" d="M83.7399 170.674Q85.6485 157.65 90.1395 155.854C94.6305 154.058 95.9778 151.138 94.1814 147.097C104.286 158.436 108.104 166.464 105.633 171.179Q103.163 175.895 83.7399 170.674L83.7399 170.674Z"/>
             </g>
            </g>
           </g>
          </g>
         </g>
        </g>
        <g transform="translate(76.3609 185.64)">
         <g transform="translate(-915.329 -443.243)">
          <g transform="rotate(0)">
           <g transform="scale(1.49492 1.49492)">
            <g transform="skewX(0) skewY(0)">
             <g opacity="1" transform="translate(-76.3609 -185.64)">
              <path stroke-width="0" fill="url(#0x00000243f19601e0)" stroke="none" d="M67.6654 175.738L67.6654 194.033C71.2977 196.54 78.2045 197.072 81.5157 194.033L81.5157 189.75C82.131 189.932 83.5933 189.966 84.5089 189.75C85.2142 187.535 85.2726 183.088 84.4827 180.837L81.5157 180.837L81.5157 175.738C78.3059 175.043 71.4805 174.903 67.6654 175.738L67.6654 175.738Z"/>
             </g>
            </g>
           </g>
          </g>
         </g>
        </g>
        <g transform="translate(75.1636 191.804)">
         <g transform="translate(-898.963 -447.981)">
          <g transform="rotate(0)">
           <g transform="scale(0.985289 0.985295)">
            <g transform="skewX(0) skewY(0)">
             <g opacity="1" transform="translate(-75.1636 -191.804)">
              <path stroke-width="0" fill="#f3e3c7" stroke="none" d="M74.7501 182.891C64.2635 182.891 61.7681 200.606 74.7501 200.716C87.732 200.827 87.5077 182.891 74.7501 182.891C74.7501 182.891 74.7501 182.891 74.7501 182.891Z"/>
             </g>
            </g>
           </g>
          </g>
         </g>
        </g>
       </g>
      </g>
     </g>
    </g>
   </g>
  </g>
 </g>
 <defs>
  <linearGradient id="0x00000243f25e98e0">
   <stop stop-color="#93a3c1" offset="0"/>
   <stop stop-color="#5b6fac" offset="1"/>
  </linearGradient>
  <linearGradient id="0x00000243f25e9b00">
   <stop stop-color="#93a3c1" offset="0"/>
   <stop stop-color="#51779e" offset="1"/>
  </linearGradient>
  <linearGradient id="0x00000243f25e9d20">
   <stop stop-color="#8aa2d1" offset="0"/>
   <stop stop-color="#3f5787" offset="1"/>
  </linearGradient>
  <linearGradient x2="1" xlink:href="#0x00000243f25e98e0" x1="0" id="0x00000243f25eda10" gradientUnits="userSpaceOnUse" y2="0.5" y1="0.5"/>
  <linearGradient x2="1" xlink:href="#0x00000243f25e9b00" x1="0" id="0x00000243f195f8b0" gradientUnits="userSpaceOnUse" y2="0.5" y1="0.5"/>
  <linearGradient x2="1" xlink:href="#0x00000243f25e9d20" x1="0" id="0x00000243f19601e0" gradientUnits="userSpaceOnUse" y2="0.5" y1="0.5"/>
 </defs>
</svg>
